# Blender v2.79 (sub 0) OBJ File: 'untitled.blend'
# www.blender.org
mtllib ground.mtl
o Plane.001_Plane.006
v -324.647919 0.009565 -108.246056
v -108.174141 0.009565 -108.246056
v -324.647919 0.009565 -324.719818
v -108.174141 0.009565 -324.719818
v -541.121948 0.009565 -108.246056
v -324.648163 0.009565 -108.246056
v -541.121948 0.009565 -324.719818
v -324.648163 0.009565 -324.719818
v -324.647919 0.009565 108.227966
v -108.174126 0.009565 108.227966
v -324.647919 0.009565 -108.245796
v -108.174126 0.009565 -108.245796
v -541.122009 0.009565 108.227966
v -324.648163 0.009565 108.227966
v -541.122009 0.009565 -108.245796
v -324.648163 0.009565 -108.245796
v -324.647919 0.009565 324.701935
v -108.174126 0.009565 324.701935
v -324.647919 0.009565 108.228180
v -108.174126 0.009565 108.228180
v -541.122009 0.009565 324.701935
v -324.648163 0.009565 324.701935
v -541.122009 0.009565 108.228180
v -324.648163 0.009565 108.228180
v -324.647919 0.009565 324.701935
v -108.174126 0.009565 324.701935
v -324.647919 0.009565 108.228180
v -108.174126 0.009565 108.228180
v -541.122009 0.009565 324.701935
v -324.648163 0.009565 324.701935
v -541.122009 0.009565 108.228180
v -324.648163 0.009565 108.228180
v 108.300095 0.009565 -108.246033
v 324.773865 0.009565 -108.246033
v 108.300095 0.009565 -324.719788
v 324.773865 0.009565 -324.719788
v -108.173935 0.009565 -108.246033
v 108.299850 0.009565 -108.246033
v -108.173935 0.009565 -324.719788
v 108.299850 0.009565 -324.719788
v 108.300095 0.009565 108.227997
v 324.773865 0.009565 108.227997
v 108.300095 0.009565 -108.245773
v 324.773865 0.009565 -108.245773
v -108.173988 0.009565 108.227997
v 108.299850 0.009565 108.227997
v -108.173988 0.009565 -108.245773
v 108.299850 0.009565 -108.245773
v 108.300095 0.009565 324.701996
v 324.773865 0.009565 324.701996
v 108.300095 0.009565 108.228210
v 324.773865 0.009565 108.228210
v -108.173988 0.009565 324.701996
v 108.299850 0.009565 324.701996
v -108.173988 0.009565 108.228210
v 108.299850 0.009565 108.228210
v 108.300095 0.009565 324.701996
v 324.773865 0.009565 324.701996
v 108.300095 0.009565 108.228210
v 324.773865 0.009565 108.228210
v -108.173988 0.009565 324.701996
v 108.299850 0.009565 324.701996
v -108.173988 0.009565 108.228210
v 108.299850 0.009565 108.228210
vt 0.003956 1.012847
vt 0.003956 -0.012847
vt 1.001693 -0.012847
vt 1.001693 1.012847
vt 0.003956 1.012847
vt 0.003956 -0.012847
vt 1.001693 -0.012847
vt 1.001693 1.012847
vt 0.003956 1.012847
vt 0.003956 -0.012847
vt 1.001693 -0.012847
vt 1.001693 1.012847
vt 0.003956 1.012847
vt 0.003956 -0.012847
vt 1.001693 -0.012847
vt 1.001693 1.012847
vt 0.003956 1.012847
vt 0.003956 -0.012847
vt 1.001693 -0.012847
vt 1.001693 1.012847
vt 0.003956 1.012847
vt 0.003956 -0.012847
vt 1.001693 -0.012847
vt 1.001693 1.012847
vt 0.003956 1.012847
vt 0.003956 -0.012847
vt 1.001693 -0.012847
vt 1.001693 1.012847
vt 0.003956 1.012847
vt 0.003956 -0.012847
vt 1.001693 -0.012847
vt 1.001693 1.012847
vt 0.003956 1.012847
vt 0.003956 -0.012847
vt 1.001693 -0.012847
vt 1.001693 1.012847
vt 0.003956 1.012847
vt 0.003956 -0.012847
vt 1.001693 -0.012847
vt 1.001693 1.012847
vt 0.003956 1.012847
vt 0.003956 -0.012847
vt 1.001693 -0.012847
vt 1.001693 1.012847
vt 0.003956 1.012847
vt 0.003956 -0.012847
vt 1.001693 -0.012847
vt 1.001693 1.012847
vt 0.003956 1.012847
vt 0.003956 -0.012847
vt 1.001693 -0.012847
vt 1.001693 1.012847
vt 0.003956 1.012847
vt 0.003956 -0.012847
vt 1.001693 -0.012847
vt 1.001693 1.012847
vt 0.003956 1.012847
vt 0.003956 -0.012847
vt 1.001693 -0.012847
vt 1.001693 1.012847
vt 0.003956 1.012847
vt 0.003956 -0.012847
vt 1.001693 -0.012847
vt 1.001693 1.012847
vn 0.0000 1.0000 0.0000
usemtl Material.022
s off
f 1/1/1 2/2/1 4/3/1 3/4/1
usemtl Material.021
f 5/5/1 6/6/1 8/7/1 7/8/1
usemtl Material.020
f 9/9/1 10/10/1 12/11/1 11/12/1
usemtl Material.019
f 13/13/1 14/14/1 16/15/1 15/16/1
usemtl Material.018
f 17/17/1 18/18/1 20/19/1 19/20/1
usemtl Material.017
f 21/21/1 22/22/1 24/23/1 23/24/1
usemtl Material.016
f 25/25/1 26/26/1 28/27/1 27/28/1
usemtl Material.015
f 29/29/1 30/30/1 32/31/1 31/32/1
usemtl Material.008
f 33/33/1 34/34/1 36/35/1 35/36/1
usemtl Material.007
f 37/37/1 38/38/1 40/39/1 39/40/1
usemtl Material.002
f 41/41/1 42/42/1 44/43/1 43/44/1
usemtl Material.001
f 45/45/1 46/46/1 48/47/1 47/48/1
usemtl Material.004
f 49/49/1 50/50/1 52/51/1 51/52/1
usemtl Material.003
f 53/53/1 54/54/1 56/55/1 55/56/1
usemtl Material.006
f 57/57/1 58/58/1 60/59/1 59/60/1
usemtl Material.005
f 61/61/1 62/62/1 64/63/1 63/64/1
